<?xml version="1.0" encoding="UTF-8"?>
<svg width="189px" height="14px" viewBox="0 0 189 14" version="1.1" xmlns="http://www.w3.org/2000/svg" xmlns:xlink="http://www.w3.org/1999/xlink">
    <title>Group 21</title>
    <g id="ðŸ“-View-Work---Work-Enquiry" stroke="none" stroke-width="1" fill="none" fill-rule="evenodd">
        <g id="Group-21" transform="translate(0, 0.5)">
            <g id="Group-4">
                <g id="Number-1" transform="translate(21.1553, 0)" fill="#000000" fill-opacity="0.6" fill-rule="nonzero">
                    <polygon id="Path" points="7.64941406 10.5 6.33007812 10.5 1.31933594 2.83007812 1.31933594 10.5 0 10.5 0 0.546875 1.31933594 0.546875 6.34375 8.25097656 6.34375 0.546875 7.64941406 0.546875"></polygon>
                    <path d="M14.3486328,9.76855469 C13.8564453,10.3473307 13.1341146,10.6367188 12.1816406,10.6367188 C11.3932292,10.6367188 10.792806,10.4077148 10.3803711,9.94970703 C9.9679362,9.49169922 9.7594401,8.81380208 9.75488281,7.91601562 L9.75488281,3.10351562 L11.0195312,3.10351562 L11.0195312,7.88183594 C11.0195312,9.00292969 11.4752604,9.56347656 12.3867188,9.56347656 C13.3528646,9.56347656 13.9954427,9.20345052 14.3144531,8.48339844 L14.3144531,3.10351562 L15.5791016,3.10351562 L15.5791016,10.5 L14.3759766,10.5 L14.3486328,9.76855469 Z" id="Path"></path>
                    <path d="M18.6894531,3.10351562 L18.7236328,3.92382812 C19.2659505,3.28580729 19.9973958,2.96679688 20.9179688,2.96679688 C21.952474,2.96679688 22.6565755,3.36328125 23.0302734,4.15625 C23.2763672,3.80078125 23.5965169,3.51367188 23.9907227,3.29492188 C24.3849284,3.07617188 24.8509115,2.96679688 25.3886719,2.96679688 C27.0110677,2.96679688 27.8359375,3.82584635 27.8632812,5.54394531 L27.8632812,10.5 L26.5986328,10.5 L26.5986328,5.61914062 C26.5986328,5.09049479 26.4778646,4.69514974 26.2363281,4.43310547 C25.9947917,4.1710612 25.5891927,4.04003906 25.0195312,4.04003906 C24.5501302,4.04003906 24.1604818,4.18017578 23.8505859,4.46044922 C23.5406901,4.74072266 23.3606771,5.11783854 23.3105469,5.59179688 L23.3105469,10.5 L22.0390625,10.5 L22.0390625,5.65332031 C22.0390625,4.57779948 21.5126953,4.04003906 20.4599609,4.04003906 C19.6305339,4.04003906 19.063151,4.39322917 18.7578125,5.09960938 L18.7578125,10.5 L17.4931641,10.5 L17.4931641,3.10351562 L18.6894531,3.10351562 Z" id="Path"></path>
                    <path d="M36.0322266,6.88378906 C36.0322266,8.0139974 35.7724609,8.92203776 35.2529297,9.60791016 C34.7333984,10.2937826 34.0361328,10.6367188 33.1611328,10.6367188 C32.226888,10.6367188 31.5045573,10.3063151 30.9941406,9.64550781 L30.9326172,10.5 L29.7705078,10.5 L29.7705078,0 L31.0351562,0 L31.0351562,3.91699219 C31.5455729,3.28352865 32.2496745,2.96679688 33.1474609,2.96679688 C34.0452474,2.96679688 34.7504883,3.3063151 35.2631836,3.98535156 C35.7758789,4.66438802 36.0322266,5.59407552 36.0322266,6.77441406 L36.0322266,6.88378906 Z M34.7675781,6.74023438 C34.7675781,5.87890625 34.601237,5.21354167 34.2685547,4.74414062 C33.9358724,4.27473958 33.4573568,4.04003906 32.8330078,4.04003906 C31.9990234,4.04003906 31.3997396,4.42740885 31.0351562,5.20214844 L31.0351562,8.40136719 C31.422526,9.17610677 32.0263672,9.56347656 32.8466797,9.56347656 C33.4527995,9.56347656 33.9244792,9.32877604 34.2617188,8.859375 C34.5989583,8.38997396 34.7675781,7.68359375 34.7675781,6.74023438 Z" id="Shape"></path>
                    <path d="M40.6943359,10.6367188 C39.6917318,10.6367188 38.8759766,10.3074544 38.2470703,9.64892578 C37.6181641,8.99039714 37.3037109,8.10970052 37.3037109,7.00683594 L37.3037109,6.77441406 C37.3037109,6.0406901 37.4438477,5.38557943 37.7241211,4.80908203 C38.0043945,4.23258464 38.3963216,3.78141276 38.8999023,3.45556641 C39.4034831,3.12972005 39.9492188,2.96679688 40.5371094,2.96679688 C41.4986979,2.96679688 42.2460938,3.28352865 42.7792969,3.91699219 C43.3125,4.55045573 43.5791016,5.45735677 43.5791016,6.63769531 L43.5791016,7.1640625 L38.5683594,7.1640625 C38.5865885,7.89322917 38.7996419,8.48225911 39.2075195,8.93115234 C39.6153971,9.38004557 40.1337891,9.60449219 40.7626953,9.60449219 C41.2093099,9.60449219 41.5875651,9.51334635 41.8974609,9.33105469 C42.2073568,9.14876302 42.4785156,8.90722656 42.7109375,8.60644531 L43.4833984,9.20800781 C42.8636068,10.1604818 41.9339193,10.6367188 40.6943359,10.6367188 Z M40.5371094,4.00585938 C40.0266927,4.00585938 39.5983073,4.19156901 39.2519531,4.56298828 C38.905599,4.93440755 38.6914062,5.45507812 38.609375,6.125 L42.3144531,6.125 L42.3144531,6.02929688 C42.2779948,5.38671875 42.1048177,4.88883464 41.7949219,4.53564453 C41.485026,4.18245443 41.0657552,4.00585938 40.5371094,4.00585938 Z" id="Shape"></path>
                    <path d="M48.6171875,4.23828125 C48.4257812,4.20638021 48.2184245,4.19042969 47.9951172,4.19042969 C47.1656901,4.19042969 46.6028646,4.54361979 46.3066406,5.25 L46.3066406,10.5 L45.0419922,10.5 L45.0419922,3.10351562 L46.2724609,3.10351562 L46.2929688,3.95800781 C46.7076823,3.29720052 47.2955729,2.96679688 48.0566406,2.96679688 C48.3027344,2.96679688 48.4895833,2.99869792 48.6171875,3.0625 L48.6171875,4.23828125 Z" id="Path"></path>
                    <polygon id="Path" points="57.2714844 10.5 56 10.5 56 2.07128906 53.4501953 3.0078125 53.4501953 1.859375 57.0732422 0.499023438 57.2714844 0.499023438"></polygon>
                </g>
                <rect id="Rectangle" fill="#2196F3" x="0" y="0.5" width="10" height="10" rx="5"></rect>
            </g>
            <g id="Group-4" transform="translate(106, 0.5)">
                <g id="New-Entry" transform="translate(21.1553, 0.0469)" fill="#000000" fill-opacity="0.6" fill-rule="nonzero">
                    <polygon id="Path" points="7.64941406 9.953125 6.33007812 9.953125 1.31933594 2.28320312 1.31933594 9.953125 0 9.953125 0 0 1.31933594 0 6.34375 7.70410156 6.34375 0 7.64941406 0"></polygon>
                    <path d="M12.8515625,10.0898438 C11.8489583,10.0898438 11.0332031,9.76057943 10.4042969,9.10205078 C9.77539062,8.44352214 9.4609375,7.56282552 9.4609375,6.45996094 L9.4609375,6.22753906 C9.4609375,5.4938151 9.60107422,4.83870443 9.88134766,4.26220703 C10.1616211,3.68570964 10.5535482,3.23453776 11.0571289,2.90869141 C11.5607096,2.58284505 12.1064453,2.41992188 12.6943359,2.41992188 C13.6559245,2.41992188 14.4033203,2.73665365 14.9365234,3.37011719 C15.4697266,4.00358073 15.7363281,4.91048177 15.7363281,6.09082031 L15.7363281,6.6171875 L10.7255859,6.6171875 C10.7438151,7.34635417 10.9568685,7.93538411 11.3647461,8.38427734 C11.7726237,8.83317057 12.2910156,9.05761719 12.9199219,9.05761719 C13.3665365,9.05761719 13.7447917,8.96647135 14.0546875,8.78417969 C14.3645833,8.60188802 14.6357422,8.36035156 14.8681641,8.05957031 L15.640625,8.66113281 C15.0208333,9.61360677 14.0911458,10.0898438 12.8515625,10.0898438 Z M12.6943359,3.45898438 C12.1839193,3.45898438 11.7555339,3.64469401 11.4091797,4.01611328 C11.0628255,4.38753255 10.8486328,4.90820312 10.7666016,5.578125 L14.4716797,5.578125 L14.4716797,5.48242188 C14.4352214,4.83984375 14.2620443,4.34195964 13.9521484,3.98876953 C13.6422526,3.63557943 13.2229818,3.45898438 12.6943359,3.45898438 Z" id="Shape"></path>
                    <polygon id="Path" points="23.7480469 8.20996094 25.1699219 2.55664062 26.4345703 2.55664062 24.28125 9.953125 23.2558594 9.953125 21.4580078 4.34765625 19.7080078 9.953125 18.6826172 9.953125 16.5361328 2.55664062 17.7939453 2.55664062 19.25 8.09375 20.9726562 2.55664062 21.9912109 2.55664062"></polygon>
                    <polygon id="Path" points="37.0097656 5.35253906 32.6962891 5.35253906 32.6962891 8.87988281 37.7070312 8.87988281 37.7070312 9.953125 31.3837891 9.953125 31.3837891 0 37.6386719 0 37.6386719 1.08007812 32.6962891 1.08007812 32.6962891 4.27929688 37.0097656 4.27929688"></polygon>
                    <path d="M40.3388672,2.55664062 L40.3798828,3.48632812 C40.944987,2.77539062 41.6832682,2.41992188 42.5947266,2.41992188 C44.1578776,2.41992188 44.9462891,3.30175781 44.9599609,5.06542969 L44.9599609,9.953125 L43.6953125,9.953125 L43.6953125,5.05859375 C43.6907552,4.52539062 43.5688477,4.1311849 43.3295898,3.87597656 C43.090332,3.62076823 42.7177734,3.49316406 42.2119141,3.49316406 C41.8017578,3.49316406 41.4417318,3.60253906 41.1318359,3.82128906 C40.8219401,4.04003906 40.5804036,4.32714844 40.4072266,4.68261719 L40.4072266,9.953125 L39.1425781,9.953125 L39.1425781,2.55664062 L40.3388672,2.55664062 Z" id="Path"></path>
                    <path d="M48.5830078,0.765625 L48.5830078,2.55664062 L49.9638672,2.55664062 L49.9638672,3.53417969 L48.5830078,3.53417969 L48.5830078,8.12109375 C48.5830078,8.41731771 48.6445312,8.63948568 48.7675781,8.78759766 C48.890625,8.93570964 49.1002604,9.00976562 49.3964844,9.00976562 C49.5423177,9.00976562 49.7428385,8.98242188 49.9980469,8.92773438 L49.9980469,9.953125 C49.6653646,10.0442708 49.3417969,10.0898438 49.0273438,10.0898438 C48.4622396,10.0898438 48.0361328,9.91894531 47.7490234,9.57714844 C47.4619141,9.23535156 47.3183594,8.75 47.3183594,8.12109375 L47.3183594,3.53417969 L45.9716797,3.53417969 L45.9716797,2.55664062 L47.3183594,2.55664062 L47.3183594,0.765625 L48.5830078,0.765625 Z" id="Path"></path>
                    <path d="M55.015625,3.69140625 C54.8242188,3.65950521 54.616862,3.64355469 54.3935547,3.64355469 C53.5641276,3.64355469 53.0013021,3.99674479 52.7050781,4.703125 L52.7050781,9.953125 L51.4404297,9.953125 L51.4404297,2.55664062 L52.6708984,2.55664062 L52.6914062,3.41113281 C53.1061198,2.75032552 53.6940104,2.41992188 54.4550781,2.41992188 C54.7011719,2.41992188 54.8880208,2.45182292 55.015625,2.515625 L55.015625,3.69140625 Z" id="Path"></path>
                    <path d="M58.5976562,8.10058594 L60.3203125,2.55664062 L61.6738281,2.55664062 L58.7001953,11.0947266 C58.2399089,12.3251953 57.5084635,12.9404297 56.5058594,12.9404297 L56.2666016,12.9199219 L55.7949219,12.8310547 L55.7949219,11.8056641 L56.1367188,11.8330078 C56.5651042,11.8330078 56.8989258,11.7464193 57.1381836,11.5732422 C57.3774414,11.4000651 57.5745443,11.0833333 57.7294922,10.6230469 L58.0097656,9.87109375 L55.3710938,2.55664062 L56.7519531,2.55664062 L58.5976562,8.10058594 Z" id="Path"></path>
                </g>
                <rect id="Rectangle" fill="#E3F2FD" x="0" y="0" width="10" height="10" rx="5"></rect>
            </g>
        </g>
    </g>
</svg>