<?xml version="1.0" encoding="UTF-8"?>
<svg width="93px" height="55px" viewBox="0 0 93 55" version="1.1" xmlns="http://www.w3.org/2000/svg" xmlns:xlink="http://www.w3.org/1999/xlink">
    <title>umpg-logo</title>
    <g id="umpg-logo" stroke="none" stroke-width="1" fill="none" fill-rule="evenodd" fill-opacity="0.6">
        <g id="UMPG-logo" transform="translate(0, 0)" fill="#000000">
            <g id="Group" transform="translate(0, 40.9921)">
                <path d="M7.78580944,0.141209949 L7.52311973,0.465018971 L7.52311973,2.89318086 C7.52311973,3.48480185 7.35766442,3.90762015 7.02596965,4.1624473 C6.69427487,4.41727445 6.16340641,4.54468803 5.43336425,4.54468803 C4.70332209,4.54468803 4.17559022,4.41970911 3.85016863,4.16893971 C3.51220067,3.91005481 3.34360877,3.48480185 3.34360877,2.89318086 L3.34360877,0.465018971 L3.08091906,0.141209949 L4.83897976,0.141209949 L4.57629005,0.465018971 L4.57629005,2.85422639 C4.57629005,3.36388069 4.86172007,3.61789629 5.43336425,3.61789629 C6.00500843,3.61789629 6.29043845,3.36306914 6.29043845,2.85422639 L6.29043845,0.465018971 L6.02774874,0.141209949 L7.78580944,0.141209949 Z" id="Shape"></path>
                <polygon id="Shape" points="14.5302698 0.141209949 14.2675801 0.465018971 14.2675801 4.46028668 13.3328752 4.46028668 11.0706071 1.91931914 11.0706071 4.13647766 11.3332968 4.46028668 9.85047218 4.46028668 10.1131619 4.13647766 10.1131619 0.465018971 9.85047218 0.141209949 11.1827403 0.141209949 13.3101349 2.64078836 13.3101349 0.465018971 13.0474452 0.141209949 14.5302698 0.141209949"></polygon>
                <polygon id="Shape" points="18.584317 4.46028668 16.8137099 4.46028668 17.0763997 4.13647766 17.0763997 0.465018971 16.8137099 0.141209949 18.584317 0.141209949 18.3216273 0.465018971 18.3216273 4.13647766"></polygon>
                <polygon id="Shape" points="25.0849073 0.141209949 23.1206155 4.46028668 22.2509949 4.46028668 20.3047386 0.141209949 22.0565261 0.141209949 21.7938364 0.465018971 22.806172 2.83961847 23.8584992 0.465018971 23.5958094 0.141209949"></polygon>
                <polygon id="Shape" points="30.7033305 4.46028668 26.7739629 4.46028668 27.0366526 4.13647766 27.0366526 0.465018971 26.7739629 0.141209949 30.7033305 0.141209949 30.7033305 1.31309022 30.3904553 1.04122049 28.2567875 1.04122049 28.2567875 1.8698145 29.6078752 1.8698145 29.9144772 1.59794477 29.9144772 3.0027403 29.6078752 2.73087057 28.2567875 2.73087057 28.2567875 3.55946459 30.3904553 3.55946459 30.7033305 3.28759486"></polygon>
                <path d="M37.3286003,4.46028668 L35.4701686,4.46028668 L35.7312901,4.13810076 L34.9322428,2.91265809 L34.4068634,2.91265809 L34.4068634,4.13647766 L34.6695531,4.46028668 L32.9240388,4.46028668 L33.1867285,4.13647766 L33.1867285,0.465018971 L32.9240388,0.141209949 L35.5266273,0.141209949 C36.0857251,0.141209949 36.5028921,0.268623524 36.7781282,0.523450675 C37.0196459,0.748250422 37.1411889,1.05663997 37.1411889,1.44943086 C37.1411889,2.05809444 36.8259612,2.49389755 36.1962901,2.75765177 L37.3286003,4.46028668 Z M35.889688,1.53951307 C35.889688,1.20677698 35.710118,1.04040894 35.3517622,1.04040894 L34.4068634,1.04040894 L34.4068634,2.10191821 L35.2012057,2.10191821 C35.4011636,2.10191821 35.5658347,2.04835582 35.6952192,1.94041948 C35.8253879,1.83329469 35.889688,1.6993887 35.889688,1.53951307 Z" id="Shape"></path>
                <path d="M43.2536256,3.19751265 C43.2536256,3.6211425 43.1101265,3.95306703 42.8215599,4.19490936 C42.5126054,4.44973651 42.0625042,4.57715008 41.4704722,4.57715008 C40.9490135,4.57715008 40.3961889,4.46109823 39.8127825,4.22737142 L39.4810877,4.60311973 L39.4810877,3.00355185 C39.8025885,3.21942454 40.1570236,3.38335793 40.5443929,3.49616358 C40.8658938,3.59111509 41.1552445,3.63899663 41.4140135,3.63899663 C41.7598229,3.63899663 41.9331197,3.52456788 41.9331197,3.29571037 C41.9331197,3.14881956 41.8139292,3.03195616 41.5763322,2.9459317 C41.3097218,2.86396501 41.0423272,2.78443297 40.7757167,2.70652403 C40.3295363,2.5466484 40.0080354,2.36973019 39.8119983,2.17576939 C39.5744013,1.94285413 39.4552108,1.63852234 39.4552108,1.26277403 C39.4552108,0.921922428 39.5908685,0.641125632 39.8621838,0.421195194 C40.1915261,0.15825253 40.6816189,0.0259696459 41.3324621,0.0259696459 C41.7660961,0.0259696459 42.2248229,0.127413575 42.7086425,0.330301433 L43.0403373,0 L43.0403373,1.44375 C42.7564755,1.30091695 42.4490894,1.18567664 42.1173946,1.09721754 C41.7856998,1.00875843 41.5049747,0.964934654 41.2760034,0.964934654 C40.9215683,0.964934654 40.7443508,1.05988617 40.7443508,1.24978921 C40.7443508,1.39668002 40.8839292,1.52165894 41.1638702,1.62553752 C41.4265599,1.70750422 41.6892496,1.78947091 41.9519393,1.87143761 C42.8199916,2.15953836 43.2536256,2.6018339 43.2536256,3.19751265 Z" id="Shape"></path>
                <path d="M50.1423693,4.46028668 L48.3780354,4.46028668 L48.6407251,4.13647766 L48.4407673,3.68363196 L46.4537352,3.68363196 L46.2435835,4.1356661 L46.5078415,4.46028668 L44.9748314,4.46028668 L46.8332631,0.465018971 L46.6827066,0.141209949 L48.090253,0.141209949 L50.1423693,4.46028668 Z M48.1341653,2.90616568 L47.4386256,1.356914 L46.7524958,2.90616568 L48.1341653,2.90616568 Z" id="Shape"></path>
                <polygon id="Shape" points="55.7294266 4.46028668 51.9255228 4.46028668 52.1882125 4.13647766 52.1882125 0.465018971 51.9255228 0.141209949 53.6710371 0.141209949 53.4083474 0.465018971 53.4083474 3.56027614 55.4165514 3.56027614 55.7294266 3.28840641"></polygon>
                <polygon id="Shape" points="66.8157167 4.46028668 65.1078415 4.46028668 65.3705312 4.13647766 65.3705312 2.06458685 64.2633137 4.46028668 63.6814755 4.46028668 62.4299747 2.02563238 62.4299747 4.13647766 62.6926644 4.46028668 61.2474789 4.46028668 61.5101686 4.13647766 61.5101686 0.465018971 61.2474789 0.141209949 62.7161889 0.141209949 64.0743339 2.78362142 65.316425 0.141209949 66.8165008 0.141209949 66.5538111 0.465018971 66.5538111 4.13647766"></polygon>
                <path d="M73.5852698,0.141209949 L73.3225801,0.465018971 L73.3225801,2.89318086 C73.3225801,3.48480185 73.1571248,3.90762015 72.82543,4.1624473 C72.4937352,4.41727445 71.9628668,4.54468803 71.2328246,4.54468803 C70.5027825,4.54468803 69.9750506,4.41970911 69.649629,4.16893971 C69.311661,3.91005481 69.1430691,3.48480185 69.1430691,2.89318086 L69.1430691,0.465018971 L68.8803794,0.141209949 L70.6384401,0.141209949 L70.3757504,0.465018971 L70.3757504,2.85422639 C70.3757504,3.36388069 70.6611804,3.61789629 71.2328246,3.61789629 C71.8044688,3.61789629 72.0898988,3.36306914 72.0898988,2.85422639 L72.0898988,0.465018971 L71.8272091,0.141209949 L73.5852698,0.141209949 Z" id="Shape"></path>
                <path d="M79.3856155,3.19751265 C79.3856155,3.6211425 79.2421164,3.95306703 78.9535497,4.19490936 C78.6445953,4.44973651 78.1944941,4.57715008 77.6024621,4.57715008 C77.0810034,4.57715008 76.5281788,4.46109823 75.9447723,4.22737142 L75.6130776,4.60311973 L75.6130776,3.00355185 C75.9345784,3.21942454 76.2890135,3.38335793 76.6763828,3.49616358 C76.9978836,3.59111509 77.2872344,3.63899663 77.5460034,3.63899663 C77.8918128,3.63899663 78.0651096,3.52456788 78.0651096,3.29571037 C78.0651096,3.14881956 77.9459191,3.03195616 77.7083221,2.9459317 C77.4417116,2.86396501 77.174317,2.78443297 76.9077066,2.70652403 C76.4615261,2.5466484 76.1400253,2.36973019 75.9439882,2.17576939 C75.7063912,1.94285413 75.5872007,1.63852234 75.5872007,1.26277403 C75.5872007,0.921922428 75.7228583,0.641125632 75.9941737,0.421195194 C76.323516,0.15825253 76.8136088,0.0259696459 77.4644519,0.0259696459 C77.898086,0.0259696459 78.3568128,0.127413575 78.8406324,0.330301433 L79.1723272,0 L79.1723272,1.44375 C78.8884654,1.30091695 78.5810793,1.18567664 78.2493845,1.09721754 C77.9176897,1.00875843 77.6369646,0.964934654 77.4079933,0.964934654 C77.0535582,0.964934654 76.8763406,1.05988617 76.8763406,1.24978921 C76.8763406,1.39668002 77.0159191,1.52165894 77.29586,1.62553752 C77.5585497,1.70750422 77.8212395,1.78947091 78.0839292,1.87143761 C78.9511973,2.15953836 79.3856155,2.6018339 79.3856155,3.19751265 Z" id="Shape"></path>
                <polygon id="Shape" points="83.3769309 4.46028668 81.6063238 4.46028668 81.8690135 4.13647766 81.8690135 0.465018971 81.6063238 0.141209949 83.3769309 0.141209949 83.1142411 0.465018971 83.1142411 4.13647766"></polygon>
                <path d="M89.501914,4.14946248 C89.3388111,4.24928331 89.1059191,4.33693086 88.8008853,4.4148398 C88.4668381,4.50086425 88.1539629,4.54468803 87.8622597,4.54468803 C87.1698567,4.54468803 86.6091906,4.36939292 86.1794772,4.0204258 C85.6917369,3.62357715 85.4470826,3.04899874 85.4470826,2.29831366 C85.4470826,1.64176855 85.6595868,1.11101391 86.0853794,0.705238196 C86.5315599,0.273492833 87.140059,0.0576201518 87.9124452,0.0576201518 C88.3884233,0.0576201518 88.8197049,0.135529089 89.2078583,0.290535413 L89.4956408,0.00568086003 L89.4956408,1.44375 C89.0118212,1.14185287 88.5068297,0.990092749 87.9814503,0.990092749 C87.568204,0.990092749 87.2537605,1.11994098 87.0365514,1.37882589 C86.84914,1.61174115 86.7550422,1.91850759 86.7550422,2.29831366 C86.7550422,2.69110455 86.8710961,3.00842116 87.1024199,3.25026349 C87.3337437,3.49210582 87.6395616,3.61302698 88.0190894,3.61302698 C88.5029089,3.61302698 88.9969224,3.455586 89.501914,3.14070405 L89.501914,4.14946248 L89.501914,4.14946248 Z" id="Shape"></path>
                <path d="M4.21636594,10.3683811 C4.21636594,11.45586 3.5467032,12.000411 2.20816189,12.000411 L1.48282462,12.000411 L1.48282462,12.9328836 L1.74551433,13.2566927 L0,13.2566927 L0.262689713,12.9328836 L0.262689713,9.26142496 L0,8.93761594 L2.24580101,8.93761594 C2.77588533,8.93761594 3.20716695,9.02607504 3.54121417,9.20299325 C3.99131535,9.44483558 4.21636594,9.83356872 4.21636594,10.3683811 Z M2.94682968,10.4462901 C2.94682968,10.0405143 2.69198145,9.83762648 2.18306914,9.83762648 L1.48204047,9.83762648 L1.48204047,11.1458474 L2.07015177,11.1458474 C2.37048061,11.1458474 2.58768971,11.0979659 2.72099494,11.0030143 C2.87155143,10.895078 2.94682968,10.7100443 2.94682968,10.4462901 Z" id="Shape"></path>
                <path d="M10.6424621,8.93761594 L10.3797723,9.26142496 L10.3797723,11.6895868 C10.3797723,12.2812078 10.214317,12.7040261 9.88262226,12.9588533 C9.55092749,13.2136804 9.02005902,13.341094 8.29001686,13.341094 C7.5599747,13.341094 7.03224283,13.2161151 6.70682125,12.9653457 C6.36885329,12.7064608 6.20026138,12.2812078 6.20026138,11.6895868 L6.20026138,9.26142496 L5.93757167,8.93761594 L7.69563238,8.93761594 L7.43294266,9.26142496 L7.43294266,11.6506324 C7.43294266,12.1602867 7.71837268,12.4143023 8.29001686,12.4143023 C8.86166105,12.4143023 9.14709106,12.1594751 9.14709106,11.6506324 L9.14709106,9.26142496 L8.88440135,8.93761594 L10.6424621,8.93761594 Z" id="Shape"></path>
                <path d="M16.9736762,12.0198883 C16.9736762,12.8444245 16.4067369,13.2566927 15.2720742,13.2566927 L12.7071248,13.2566927 L12.9698145,12.9328836 L12.9698145,9.26142496 L12.7071248,8.93761594 L15.1850337,8.93761594 C16.3196965,8.93761594 16.8866358,9.32391442 16.8866358,10.0965114 C16.8866358,10.3123841 16.8199831,10.5022871 16.6866779,10.6662205 C16.5533727,10.8301539 16.3839966,10.9470173 16.180118,11.0159992 C16.4098735,11.0590114 16.5996374,11.1758748 16.7494098,11.3657778 C16.898398,11.5556809 16.9736762,11.7739882 16.9736762,12.0198883 Z M15.5974958,10.2523293 C15.5974958,10.1184233 15.5567201,10.0129216 15.4759528,9.93501265 C15.3951855,9.85710371 15.2901096,9.81896079 15.1615093,9.81896079 L14.1899494,9.81896079 L14.1899494,10.7059865 L14.9623356,10.7059865 C15.3857757,10.705175 15.5974958,10.5542264 15.5974958,10.2523293 Z M15.6845363,11.8770552 C15.6845363,11.5751581 15.5073187,11.4242095 15.1528836,11.4242095 L14.1891653,11.4242095 L14.1891653,12.3566821 L15.1215177,12.3566821 C15.4971248,12.3566821 15.6845363,12.1968065 15.6845363,11.8770552 Z" id="Shape"></path>
                <polygon id="Shape" points="22.8422428 13.2566927 19.038339 13.2566927 19.3010287 12.9328836 19.3010287 9.26142496 19.038339 8.93761594 20.7838533 8.93761594 20.5211636 9.26142496 20.5211636 12.3566821 22.5293676 12.3566821 22.8422428 12.0848124"></polygon>
                <polygon id="Shape" points="26.4085497 13.2566927 24.6379427 13.2566927 24.9006324 12.9328836 24.9006324 9.26142496 24.6379427 8.93761594 26.4085497 8.93761594 26.14586 9.26142496 26.14586 12.9328836"></polygon>
                <path d="M32.4276728,11.9939186 C32.4276728,12.4175485 32.2841737,12.749473 31.9956071,12.9913153 C31.6866526,13.2461425 31.2365514,13.3735561 30.6445194,13.3735561 C30.1230607,13.3735561 29.5702361,13.2575042 28.9868297,13.0237774 L28.6551349,13.3995257 L28.6551349,11.7999578 C28.9766358,12.0158305 29.3310708,12.1797639 29.7184401,12.2925696 C30.039941,12.3875211 30.3292917,12.4354026 30.5880607,12.4354026 C30.9338702,12.4354026 31.1071669,12.3209739 31.1071669,12.0921164 C31.1071669,11.9452255 30.9879764,11.8283621 30.7503794,11.7423377 C30.483769,11.660371 30.2163744,11.580839 29.9497639,11.50293 C29.5035835,11.3430544 29.1820826,11.1661362 28.9860455,10.9721754 C28.7484486,10.7392601 28.629258,10.4349283 28.629258,10.05918 C28.629258,9.71832841 28.7649157,9.43753162 29.036231,9.21760118 C29.3655734,8.95465852 29.8556661,8.82237563 30.5065093,8.82237563 C30.9401433,8.82237563 31.3988702,8.92381956 31.8826897,9.12670742 L32.2143845,8.79640599 L32.2143845,10.240156 C31.9305228,10.0973229 31.6231366,9.98208263 31.2914418,9.89362352 C30.959747,9.80516442 30.6790219,9.76134064 30.4500506,9.76134064 C30.0956155,9.76134064 29.918398,9.85629216 29.918398,10.0461952 C29.918398,10.193086 30.0579764,10.3180649 30.3379174,10.4219435 C30.6006071,10.5039102 30.8632968,10.5858769 31.1259865,10.6678436 C31.9932546,10.9559444 32.4276728,11.3982399 32.4276728,11.9939186 Z" id="Shape"></path>
                <polygon id="Shape" points="39.5971417 13.2566927 37.8516273 13.2566927 38.114317 12.9328836 38.114317 11.5280881 36.0998398 11.5280881 36.0998398 12.9328836 36.3625295 13.2566927 34.6170152 13.2566927 34.8797049 12.9328836 34.8797049 9.26142496 34.6170152 8.93761594 36.3625295 8.93761594 36.0998398 9.26142496 36.0998398 10.667032 38.114317 10.667032 38.114317 9.26142496 37.8516273 8.93761594 39.5971417 8.93761594 39.3344519 9.26142496 39.3344519 12.9328836"></polygon>
                <polygon id="Shape" points="43.651973 13.2566927 41.8813659 13.2566927 42.1440556 12.9328836 42.1440556 9.26142496 41.8813659 8.93761594 43.651973 8.93761594 43.3892833 9.26142496 43.3892833 12.9328836"></polygon>
                <polygon id="Shape" points="50.6152108 8.93761594 50.3525211 9.26142496 50.3525211 13.2566927 49.4178162 13.2566927 47.1555481 10.7157251 47.1555481 12.9328836 47.4182378 13.2566927 45.9354132 13.2566927 46.1981029 12.9328836 46.1981029 9.26142496 45.9354132 8.93761594 47.2676813 8.93761594 49.3950759 11.4371944 49.3950759 9.26142496 49.1323862 8.93761594 50.6152108 8.93761594"></polygon>
                <path d="M55.7890219,11.4436868 L55.520059,11.1133853 L57.0091568,11.1133853 L57.0091568,12.8419899 C56.8131197,12.9718381 56.5394519,13.0862669 56.1897218,13.1852761 C55.8101939,13.2891547 55.4518381,13.3402825 55.113086,13.3402825 C54.4167622,13.3402825 53.8474705,13.1649874 53.4052108,12.8160202 C52.9002192,12.4191716 52.6485076,11.8445932 52.6485076,11.0939081 C52.6485076,10.3472808 52.9135497,9.77107926 53.4428499,9.36449199 C53.8937352,9.02364039 54.4504806,8.85321459 55.113086,8.85321459 C55.5341737,8.85321459 55.9929005,8.9432968 56.4892664,9.12508432 L56.8209612,8.8012753 L56.8209612,10.2839798 C56.2367707,9.95124368 55.6886509,9.78487563 55.1758179,9.78487563 C54.7962901,9.78487563 54.4983137,9.90336214 54.2811046,10.1411467 C54.0638954,10.3789313 53.955683,10.6954363 53.955683,11.0930965 C53.955683,11.4899452 54.0638954,11.8088849 54.2811046,12.0482926 C54.4983137,12.2877003 54.7962901,12.4078099 55.1758179,12.4078099 C55.3546037,12.4078099 55.5592664,12.3842749 55.7890219,12.3363933 L55.7890219,11.4436868 Z" id="Shape"></path>
                <path d="M65.7179089,11.4436868 L65.448946,11.1133853 L66.9380438,11.1133853 L66.9380438,12.8419899 C66.7420067,12.9718381 66.468339,13.0862669 66.1186088,13.1852761 C65.7390809,13.2891547 65.3807251,13.3402825 65.041973,13.3402825 C64.3456492,13.3402825 63.7763575,13.1649874 63.3340978,12.8160202 C62.8291062,12.4191716 62.5773946,11.8445932 62.5773946,11.0939081 C62.5773946,10.3472808 62.8424368,9.77107926 63.3717369,9.36449199 C63.8226223,9.02364039 64.3793676,8.85321459 65.041973,8.85321459 C65.4630607,8.85321459 65.9217875,8.9432968 66.4181535,9.12508432 L66.7498482,8.8012753 L66.7498482,10.2839798 C66.1656577,9.95124368 65.6175379,9.78487563 65.1047049,9.78487563 C64.7251771,9.78487563 64.4272007,9.90336214 64.2099916,10.1411467 C63.9927825,10.3789313 63.88457,10.6954363 63.88457,11.0930965 C63.88457,11.4899452 63.9927825,11.8088849 64.2099916,12.0482926 C64.4272007,12.2877003 64.7251771,12.4078099 65.1047049,12.4078099 C65.2834907,12.4078099 65.4881535,12.3842749 65.7179089,12.3363933 L65.7179089,11.4436868 Z" id="Shape"></path>
                <path d="M73.3759022,13.2566927 L71.5174705,13.2566927 L71.7785919,12.9345067 L70.9795447,11.7090641 L70.4541653,11.7090641 L70.4541653,12.9328836 L70.716855,13.2566927 L68.9713406,13.2566927 L69.2340304,12.9328836 L69.2340304,9.26142496 L68.9713406,8.93761594 L71.5739292,8.93761594 C72.133027,8.93761594 72.5501939,9.06502951 72.82543,9.31985666 C73.0669477,9.54465641 73.1884907,9.85304595 73.1884907,10.2458368 C73.1884907,10.8545004 72.8732631,11.2903035 72.2435919,11.5540578 L73.3759022,13.2566927 Z M71.9369899,10.3367306 C71.9369899,10.0039945 71.7574199,9.83762648 71.3990641,9.83762648 L70.4541653,9.83762648 L70.4541653,10.8991358 L71.2485076,10.8991358 C71.4484654,10.8991358 71.6131366,10.8455734 71.7425211,10.737637 C71.8719056,10.6297007 71.9369899,10.4957947 71.9369899,10.3367306 Z" id="Shape"></path>
                <path d="M80.1391821,11.0939081 C80.1391821,11.8535202 79.8866863,12.4362142 79.3816948,12.8419899 C78.94414,13.1917685 78.3952361,13.3662521 77.7365514,13.3662521 C77.0731619,13.3662521 76.5250422,13.1917685 76.0914081,12.8419899 C75.578575,12.4362142 75.3221585,11.8535202 75.3221585,11.0939081 C75.3221585,10.334296 75.578575,9.75160202 76.0914081,9.34582631 C76.5250422,9.00091695 77.073946,8.82805649 77.7365514,8.82805649 C78.3952361,8.82805649 78.94414,9.00091695 79.3816948,9.34582631 C79.8866863,9.75160202 80.1391821,10.334296 80.1391821,11.0939081 Z M78.8312226,11.0939081 C78.8312226,10.2044477 78.4665936,9.75971754 77.7365514,9.75971754 C77.0025885,9.75971754 76.6356071,10.2044477 76.6356071,11.0939081 C76.6356071,11.9874262 77.0025885,12.4345911 77.7365514,12.4345911 C78.4665936,12.4345911 78.8312226,11.9874262 78.8312226,11.0939081 Z" id="Shape"></path>
                <path d="M86.6711383,8.93761594 L86.4084486,9.26142496 L86.4084486,11.6895868 C86.4084486,12.2812078 86.2429933,12.7040261 85.9112985,12.9588533 C85.5796037,13.2136804 85.0487352,13.341094 84.3186931,13.341094 C83.5886509,13.341094 83.0609191,13.2161151 82.7354975,12.9653457 C82.3975295,12.7064608 82.2289376,12.2812078 82.2289376,11.6895868 L82.2289376,9.26142496 L81.9662479,8.93761594 L83.7243086,8.93761594 L83.4616189,9.26142496 L83.4616189,11.6506324 C83.4616189,12.1602867 83.7470489,12.4143023 84.3186931,12.4143023 C84.8903373,12.4143023 85.1757673,12.1594751 85.1757673,11.6506324 L85.1757673,9.26142496 L84.9130776,8.93761594 L86.6711383,8.93761594 Z" id="Shape"></path>
                <path d="M92.9529511,10.3683811 C92.9529511,11.45586 92.2832884,12.000411 90.944747,12.000411 L90.2194098,12.000411 L90.2194098,12.9328836 L90.4820995,13.2566927 L88.7365852,13.2566927 L88.9992749,12.9328836 L88.9992749,9.26142496 L88.7365852,8.93761594 L90.9823862,8.93761594 C91.5124705,8.93761594 91.9437521,9.02607504 92.2777993,9.20299325 C92.7271164,9.44483558 92.9529511,9.83356872 92.9529511,10.3683811 Z M91.6826307,10.4462901 C91.6826307,10.0405143 91.4277825,9.83762648 90.9188702,9.83762648 L90.2178415,9.83762648 L90.2178415,11.1458474 L90.8059528,11.1458474 C91.1062816,11.1458474 91.3234907,11.0979659 91.456796,11.0030143 C91.6073524,10.895078 91.6826307,10.7100443 91.6826307,10.4462901 Z" id="Shape"></path>
            </g>
            <g id="Group" transform="translate(11.9774, 0)">
                <path d="M50.9630547,21.3692373 C48.8308518,27.8579388 42.835664,32.9041834 35.2371674,32.9041834 C27.1802431,32.9041834 21.7622465,27.9254313 19.5864969,21.5097159 C21.8509234,27.4851602 28.0076297,31.7709366 35.2490437,31.7709366 C42.5458808,31.7709366 48.7429667,27.4192373 50.9630547,21.3692373 Z M46.4444947,21.3551109 L46.2774339,21.6086003 C46.0406984,22.0677066 46.241013,22.0221884 45.6717394,22.7434168 C45.4247111,23.0581204 45.3566199,22.6374692 44.6139514,23.0243741 C43.9116625,23.3924439 44.2774544,23.620035 43.2616296,24.6332079 C41.9718566,25.9171358 41.5039279,25.5561292 41.5482664,25.8716176 C41.5910213,26.1878908 41.5173878,26.2891296 41.1737651,26.3621157 C39.8729075,26.6352251 40.1080595,27.0134972 39.4754452,26.9232456 C39.1183626,27.861078 38.4817896,27.9089506 38.4817896,27.9089506 C38.4817896,27.9089506 38.790575,28.2032494 38.4144902,28.3578545 C37.4342944,28.7620249 38.3384815,28.846783 38.0748262,28.9362498 C37.7224941,29.0563238 37.3179061,28.5783824 37.3875807,28.2683876 C37.605314,27.3132897 37.7549562,27.230886 37.7549562,27.230886 C37.7549562,27.230886 37.4097499,26.8690946 37.8539259,26.4335322 C38.5506725,25.6236217 38.6203471,24.3067324 38.6203471,24.3067324 C38.6203471,24.3067324 38.9425924,24.4864509 38.9425924,23.3712544 C38.9425924,22.1579582 39.4041871,22.8093397 39.0938181,22.0064924 C38.9631781,21.6666753 38.6781454,21.4445778 38.4501193,21.3551109 L46.4444947,21.3551109 Z M35.2371674,0 C43.1119874,0 48.898943,5.06743417 50.9978921,11.6102867 C48.9928723,6.02676079 43.6058791,1.86741142 37.0813729,1.20459709 C35.286172,1.28532609 34.1457266,2.2389137 33.9925246,2.53724867 C34.1888804,2.83704112 35.4849875,2.77190297 35.6472977,3.08425217 C35.9592502,3.68697626 36.3796734,3.63439486 36.3598795,3.35814632 C36.2838708,2.28846802 37.0716695,3.08425217 36.6797495,2.66438578 C36.5396084,2.51448956 36.0803891,2.56236217 36.3852157,1.96513166 C36.7660511,2.28925282 36.8183071,1.84034894 37.4279604,2.31358153 C37.78821,2.59139966 37.9623967,2.71068881 38.2418871,2.41325075 C38.6496422,2.555299 39.3313454,3.17214944 39.9987969,3.45624595 C39.6670505,4.12803217 38.5443384,3.29614736 38.395488,3.70502659 C38.2680151,4.05269166 38.7509871,4.20337268 39.0819418,4.37759761 C38.6488504,4.77470489 38.0906614,4.6153911 38.0906614,4.6153911 C38.0906614,4.6153911 38.2046745,5.10196524 37.6813227,5.27540537 C37.4540883,5.35153068 37.3392835,5.77061227 37.0447497,6.34586847 C36.838101,6.74768452 36.4572657,6.93368141 35.9529161,7.23504346 C35.2458767,7.65647944 36.3725476,8.32905046 36.0289249,9.22293423 C35.1975795,8.88861071 35.6781763,7.561519 34.8191194,7.92409521 C34.1667112,8.20034375 33.9893575,7.5889869 33.2522313,8.15717992 C32.5934891,7.90682968 31.8397359,8.11872487 31.5562868,8.59588144 C31.1041932,9.35713452 31.0899416,10.1843105 31.3005491,10.6920742 L29.3805372,10.6936438 C28.9331942,10.6936438 29.361535,10.2690686 29.361535,10.2690686 C29.361535,10.2690686 28.2158619,8.5542872 28.2380311,7.66354261 C28.2467404,7.32294072 28.0345494,7.69885848 28.0123802,7.60860682 C27.9102435,8.32905046 28.5214803,9.00083668 28.3053305,9.72520431 C28.1921092,10.1050461 28.0052544,9.13111298 27.8342348,8.85172526 C27.5420763,8.37535348 27.5697878,8.86349721 27.6307531,8.20505254 C27.7099288,7.34334544 27.2918809,6.59386431 27.2918809,6.59386431 C27.2918809,6.59386431 27.4787357,5.54616033 28.1129334,4.851615 C28.8825217,4.01031262 28.6354934,3.85021404 28.6354934,3.85021404 C28.6354934,3.85021404 29.067793,2.66752497 29.4628799,2.53803347 C29.6924896,2.46347775 29.5349299,2.14249578 29.9933575,1.86232326 L29.9026312,1.92531685 C25.0521947,3.4501081 21.2116994,6.99258836 19.5508678,11.4705928 C21.6941554,4.99915683 26.7637786,0 35.2371674,0 Z M36.1936104,9.82644312 C36.4857689,9.83272149 36.4160943,10.2533727 36.8175153,10.1693994 C37.2189364,10.0854261 37.2236869,10.542178 37.7961276,10.5256972 C38.3717353,10.5092165 37.6821145,10.7218965 37.6821145,10.7218965 C37.6821145,10.7218965 37.3258236,10.5547347 37.096214,10.6669607 C36.9750751,10.7258205 37.1413441,10.6324296 36.9386542,10.4699767 C36.6235347,10.2180568 36.6647061,10.5178493 36.1366039,10.078363 C35.7628943,9.76758334 35.4042282,10.1152484 35.5704973,9.87196134 C35.6710505,9.72206512 35.9766689,9.82173434 36.1936104,9.82644312 Z" id="Combined-Shape"></path>
                <path d="M6.91441821,13.0778571 L4.3309135,13.0778571 L4.7164994,13.5267609 L4.7164994,16.8409586 C4.7164994,17.5865158 4.21056636,17.9012194 3.45760498,17.9012194 C2.70306009,17.9012194 2.19791881,17.5865158 2.19791881,16.8409586 L2.19791881,13.5267609 L2.58350471,13.0778571 L0,13.0778571 L0.385585901,13.5267609 L0.385585901,16.8958944 C0.385585901,18.5486769 1.33331962,19.185932 3.45760498,19.185932 C5.58109859,19.185932 6.52883231,18.5486769 6.52883231,16.8958944 L6.52883231,13.5267609 L6.91441821,13.0778571 L6.91441821,13.0778571 Z" id="Shape"></path>
                <polygon id="Shape" points="15.8834471 13.0778571 13.7037387 13.0778571 14.0909082 13.5275457 14.0909082 16.5450902 10.9650496 13.0778571 9.00544976 13.0778571 9.39182742 13.5275457 9.39182742 18.6200934 9.00544976 19.0689973 11.1843664 19.0689973 10.7987805 18.6200934 10.7987805 15.548398 14.1178279 19.0689973 15.4978612 19.0689973 15.4978612 13.5275457"></polygon>
                <polygon id="Shape" points="20.9055649 19.0689973 20.5191873 18.6200934 20.5191873 13.5275457 20.9055649 13.0778571 18.3022663 13.0778571 18.6886439 13.5275457 18.6886439 18.6200934 18.3022663 19.0689973"></polygon>
                <polygon id="Shape" points="29.4866327 13.0778571 27.2990067 13.0778571 27.6845926 13.5275457 26.1398737 16.8236931 24.6505779 13.5275457 25.0369555 13.0778571 22.4613684 13.0778571 25.3211965 19.0689973 26.5990931 19.0689973"></polygon>
                <polygon id="Shape" points="36.7945544 19.0689973 36.7945544 17.4436827 36.3345432 17.8203853 33.1983918 17.8203853 33.1983918 16.6706577 35.1849114 16.6706577 35.6354214 17.048145 35.6354214 15.0994941 35.1849114 15.4769815 33.1983918 15.4769815 33.1983918 14.3264691 36.3345432 14.3264691 36.7945544 14.7039564 36.7945544 13.0778571 31.0194752 13.0778571 31.4058528 13.5275457 31.4058528 18.6200934 31.0194752 19.0689973"></polygon>
                <path d="M45.5862296,19.0689973 L43.9219553,16.7067583 C44.7406326,16.383422 45.3099062,15.7634324 45.3099062,14.8923077 C45.3099062,13.8956155 44.6844178,13.0778571 42.9378008,13.0778571 L39.1120285,13.0778571 L39.4984062,13.5267609 L39.4984062,18.6200934 L39.1120285,19.0689973 L41.6781146,19.0689973 L41.2917369,18.6200934 L41.2917369,16.9225775 L42.0629087,16.9225775 L43.2402521,18.6200934 L42.8546662,19.0689973 L45.5862296,19.0689973 L45.5862296,19.0689973 Z M43.4706536,15.01866 C43.4706536,15.4495136 43.0486468,15.8003178 42.4587875,15.8003178 L41.2917369,15.8003178 L41.2917369,14.3272515 L42.6796878,14.3272515 C43.0834841,14.3264691 43.4706536,14.5250227 43.4706536,15.01866 L43.4706536,15.01866 Z" id="Shape"></path>
                <path d="M53.3549541,17.3181152 C53.3549541,16.3661564 52.5703225,15.8356337 51.4412763,15.4769815 C50.7057336,15.2525295 49.6669477,15.0900765 49.6669477,14.6144896 C49.6669477,14.3806201 49.9511887,14.2189519 50.4484124,14.2189519 C51.1103216,14.2189519 52.1942377,14.4881372 53.0406264,14.8836749 L53.0406264,12.8800882 L52.5536956,13.3384097 C52.0390532,13.132008 51.1467425,12.9161889 50.5315469,12.9161889 C48.4444741,12.9161889 47.772272,13.8147814 47.772272,14.6317551 C47.772272,15.745382 48.5268169,16.2303866 49.7120779,16.6337722 C50.5948875,16.9304255 51.412773,16.9578934 51.412773,17.4515307 C51.412773,17.8745363 50.9084235,17.9279025 50.6503105,17.9279025 C49.9979024,17.9279025 48.8379776,17.7026657 47.8086929,17.0473602 L47.8086929,19.2667661 L48.2964155,18.7448761 C48.7738453,18.9245946 49.8498437,19.2298807 50.7326533,19.2298807 C52.5434027,19.2306655 53.3549541,18.4497925 53.3549541,17.3181152 L53.3549541,17.3181152 Z" id="Shape"></path>
                <path d="M62.5250895,19.0689973 L59.5092852,13.0778571 L57.4396311,13.0778571 L57.6605314,13.5267609 L54.928968,19.0689973 L57.1831016,19.0689973 L56.796724,18.6200934 L57.0999671,17.991471 L60.0231358,17.991471 L60.3192531,18.6200934 L59.9320837,19.0689973 L62.5250895,19.0689973 L62.5250895,19.0689973 Z M59.5742093,16.9131599 L57.5417678,16.9131599 L58.5520503,14.7667402 L59.5742093,16.9131599 L59.5742093,16.9131599 Z" id="Shape"></path>
                <polygon id="Shape" points="69.7918398 19.0689973 69.7918398 17.4436827 69.3318287 17.8203853 66.3809485 17.8203853 66.3809485 13.5275457 66.7665344 13.0778571 64.2012401 13.0778571 64.5860342 13.5275457 64.5860342 18.6200934 64.2012401 19.0689973"></polygon>
                <path d="M68.1536935,13.9089571 C68.1536935,14.3280387 68.501275,14.667071 68.9296158,14.667071 C69.3587484,14.667071 69.7063299,14.3272539 69.7063299,13.9089571 C69.7063299,13.4898755 69.3587484,13.1508432 68.9296158,13.1508432 C68.501275,13.1508432 68.1536935,13.4898755 68.1536935,13.9089571 L68.1536935,13.9089571 Z M68.073726,13.9089571 C68.073726,13.4474964 68.4577284,13.0723635 68.9296158,13.0723635 C69.4022951,13.0723635 69.7855057,13.4467116 69.7855057,13.9089571 C69.7855057,14.3704177 69.4022951,14.7455507 68.9296158,14.7455507 C68.4577284,14.7455507 68.073726,14.3704177 68.073726,13.9089571 L68.073726,13.9089571 Z" id="Shape"></path>
                <path d="M69.2518611,13.5816967 C69.1679348,13.511065 69.0665899,13.4788883 68.9557438,13.4788883 C68.7047567,13.4788883 68.5163184,13.669594 68.5163184,13.9113115 C68.5163184,14.1545985 68.7015897,14.3468738 68.9533686,14.3468738 C69.0673816,14.3468738 69.1774359,14.3052795 69.2637375,14.2315086 L69.2637375,14.1224218 C69.1861453,14.2142431 69.0721322,14.2715333 68.9502015,14.2715333 C68.7490951,14.2715333 68.599453,14.1004475 68.599453,13.9113115 C68.599453,13.7221754 68.7506786,13.5542288 68.9517851,13.5542288 C69.0737157,13.5542288 69.1718936,13.6028862 69.2518611,13.6892139 L69.2518611,13.5816967 L69.2518611,13.5816967 Z" id="Shape"></path>
            </g>
        </g>
    </g>
</svg>